<svg version="1.1" xmlns="http://www.w3.org/2000/svg" xmlns:xlink="http://www.w3.org/1999/xlink" x="0px" y="0px"
	 viewBox="0 0 52.8 64" style="enable-background:new 0 0 52.8 64;" xml:space="preserve" class="iconosvghijos">
			<path class="st13" d="M39.6,5.6l-4.2-5H17.5l-4.2,5H0v9.7h5v40c0,2.2,0.8,4.1,2.4,5.7c1.6,1.6,3.5,2.4,5.7,2.4h26.6
				c2.2,0,4.1-0.8,5.7-2.4c1.6-1.6,2.4-3.5,2.4-5.7v-40h5V5.6H39.6z M45,55.3c0,1.4-0.5,2.6-1.6,3.7c-1.1,1.1-2.3,1.6-3.7,1.6H13.1
				c-1.4,0-2.6-0.5-3.7-1.6c-1.1-1.1-1.6-2.3-1.6-3.7v-40H45V55.3z M50,12.4h-2.2h-45v-4h11.7l4.2-5H34l4.2,5H50V12.4z"/>
			<rect x="18" y="23.8" class="st13" width="2.8" height="28.2"/>
			<rect x="32" y="23.8" class="st13" width="2.8" height="28.2"/>
</svg>
