<svg version="1.1" xmlns="http://www.w3.org/2000/svg" xmlns:xlink="http://www.w3.org/1999/xlink" x="0px" y="0px"
	 viewBox="0 0 58.7 64" style="enable-background:new 0 0 58.7 64;" xml:space="preserve" class="iconosvg left">
			<path class="st13" d="M49,29.8V0.2H0v52.3c0,6.2,5.1,11.3,11.3,11.3h42v0c3,0,5.4-2.4,5.4-5.4V29.8H49z M11.3,61
				c-4.7,0-8.5-3.8-8.5-8.5V3h43.3v26.8v26.8v0c0,0.4,0,0.7,0.1,1.1c0,0.1,0,0.1,0,0.2c0.1,0.3,0.1,0.7,0.3,1c0,0.1,0,0.1,0.1,0.1
				c0.1,0.3,0.3,0.7,0.4,1c0,0,0,0,0,0c0.2,0.3,0.4,0.6,0.6,0.9c0,0,0,0,0,0.1H11.3z M55.9,58.4c0,1.4-1.2,2.6-2.6,2.6
				c-2.4,0-4.3-2-4.3-4.3v-24h6.9V58.4z"/>
			<rect x="8.6" y="50" class="st13" width="31.7" height="2.8"/>
			<rect x="8.6" y="39.9" class="st13" width="31.7" height="2.8"/>
			<path class="st13" d="M24.6,28.7c-0.9,0-1.5-0.3-2-0.8c-0.5-0.5-0.7-1.2-0.7-2.2h-3.5c0,1.7,0.5,3,1.4,4c0.9,1,2.2,1.6,3.8,1.8
				v2.4h1.9v-2.4c1.5-0.2,2.7-0.7,3.5-1.5s1.3-2,1.3-3.3c0-0.7-0.1-1.4-0.3-1.9s-0.6-1-1-1.5s-1-0.8-1.6-1.2s-1.4-0.7-2.4-1.1
				c-1-0.4-1.6-0.8-2-1.1c-0.4-0.4-0.5-0.9-0.5-1.5c0-0.7,0.2-1.2,0.5-1.6s0.9-0.6,1.5-0.6c0.7,0,1.2,0.2,1.6,0.7
				c0.4,0.5,0.6,1.2,0.6,2.2h3.5c0-1.6-0.4-2.9-1.2-3.8c-0.8-1-1.9-1.6-3.4-1.8v-2.6h-1.9v2.6c-1.4,0.1-2.6,0.7-3.5,1.5
				c-0.9,0.9-1.3,2-1.3,3.4c0,0.8,0.1,1.5,0.4,2c0.3,0.6,0.6,1.1,1.1,1.5s1,0.8,1.6,1.1c0.6,0.3,1.4,0.7,2.3,1s1.5,0.7,1.9,1.1
				c0.4,0.4,0.6,0.9,0.6,1.6c0,0.6-0.2,1.1-0.6,1.5C25.9,28.5,25.3,28.7,24.6,28.7z"/>
</svg>