<svg version="1.1" xmlns="http://www.w3.org/2000/svg" xmlns:xlink="http://www.w3.org/1999/xlink" x="0px" y="0px"
	 viewBox="0 0 62.8 64" style="enable-background:new 0 0 62.8 64;" xml:space="preserve" class="iconosvghijos">
	<path class="st13" d="M61.5,9.7l-7.8-7.8c-0.9-0.9-2-1.4-3.3-1.4S47.9,1.1,47,1.9l-47,47v14.5h14.5l47-47c0.9-0.9,1.4-2,1.4-3.3
		S62.4,10.6,61.5,9.7z M13.3,60.6H2.8V50.1l35.5-35.5l10.5,10.5L13.3,60.6z M59.5,14.4l-8.7,8.7L40.3,12.6L49,3.9
		c0.4-0.4,0.8-0.5,1.3-0.5s1,0.2,1.3,0.5l7.8,7.8c0.4,0.4,0.5,0.8,0.5,1.3S59.8,14.1,59.5,14.4z"/>
</svg>
