<svg version="1.1" xmlns="http://www.w3.org/2000/svg" xmlns:xlink="http://www.w3.org/1999/xlink" x="0px" y="0px"
	 viewBox="0 0 115.5 64" style="enable-background:new 0 0 115.5 64;" xml:space="preserve" class="iconosvg left">
			<circle class="st13" cx="77.2" cy="32.9" r="2.7"/>
			<path class="st13" d="M63.2,46.9c-0.4,0.9-0.9,1.7-1.3,2.5c1.9,0.6,3.8,1,5.8,1c5.1,0,10.1-2.2,13.6-6l-2.1-1.9
				c-3,3.2-7.1,5.1-11.5,5.1C66.2,47.6,64.7,47.3,63.2,46.9z"/>
			<path class="st13" d="M67.7,59.4c-4.1,0-8-0.9-11.6-2.6c-0.7,0.7-1.5,1.4-2.3,2c4.2,2.2,8.9,3.4,13.9,3.4
				c14.3,0,26.7-10.1,29.7-24.1l-2.8-0.6C92,50.3,80.6,59.4,67.7,59.4z"/>
			<path class="st13" d="M97,7.2c1.9,2.3,3.6,4.7,5,7.4c10.2-1.4-6.7,21.5,13.1,21.5C115.1,26.9,119.7-4.5,97,7.2z"/>
			<path class="st13" d="M67.7,1.7c-5,0-9.8,1.2-13.9,3.4c4.1,3.4,7.4,7.6,9.7,12.5c10.9,7.5,20.7,12.7,34.5,16.3
				c0-0.6,0.1-1.3,0.1-1.9C98,15.3,84.4,1.7,67.7,1.7z"/>
			<circle class="st13" cx="41.8" cy="33" r="2.9"/>
			<circle class="st13" cx="21.8" cy="33" r="2.9"/>
			<path class="st13" d="M31.8,51.3c5.4,0,10.6-2.3,14.2-6.3L44,43.1c-3.1,3.4-7.5,5.4-12.1,5.4s-9-2-12.1-5.4L17.6,45
				C21.3,49,26.5,51.3,31.8,51.3z"/>
			<path class="st13" d="M63,38.5L60.2,38c-2.8,13.3-14.7,23-28.4,23S6.3,51.3,3.5,38l-2.8,0.6c3.1,14.7,16.2,25.3,31.1,25.3
				C46.8,63.8,59.9,53.2,63,38.5z"/>
			<path class="st13" d="M63.6,33.9c0-0.6,0.1-1.3,0.1-1.9c0-17.6-14.3-31.8-31.8-31.8C14.3,0.2,0,14.4,0,32c0,0.7,0,1.4,0.1,2
				c16.7-4.4,28-11,41.8-21C46,21.7,53.5,30.1,63.6,33.9z"/>
			<path class="st13" d="M91.6,5.6l-1.9,2.1c4,3.6,7.1,8.1,8.9,13.1l2.7-1C99.3,14.4,96,9.5,91.6,5.6z"/>
</svg>
