<svg version="1.1" xmlns="http://www.w3.org/2000/svg" xmlns:xlink="http://www.w3.org/1999/xlink" x="0px" y="0px"
	 viewBox="0 0 74.9 64" style="enable-background:new 0 0 74.9 64;" xml:space="preserve" class="iconosvg left">
				<path class="st13" d="M74.9,24.2h-9H19.1h-7.4c-4.9,0-8.9-4-8.9-8.9c0-4.9,4-8.9,8.9-8.9h54.1V3.5H11.8C5.3,3.5,0,8.8,0,15.3
					C0,21.5,4.9,26.6,11,27c-3.2,2.4-5.2,6.3-5.2,10.5c0,7.4,6,13.3,13.3,13.3h2.4v9.6l5.6-8l5.6,8v-9.6h42.2V48H32.6v-9.1h16.2
					v-2.8H16.4v2.8h5.1V48h-2.4c-5.8,0-10.5-4.7-10.5-10.5S13.3,27,19.1,27h46.7h9V24.2z"/>
				<rect x="13.2" y="13.8" class="st13" width="6.3" height="2.8"/>
				<rect x="27.6" y="13.8" class="st13" width="38.2" height="2.8"/>
				<rect x="56.3" y="36.1" class="st13" width="12.6" height="2.8"/>
</svg>
